<?xml version="1.0" encoding="iso-8859-1"?>
<!-- Generator: Adobe Illustrator 19.0.0, SVG Export Plug-In . SVG Version: 6.00 Build 0)  -->
<svg version="1.1" id="Capa_1" xmlns="http://www.w3.org/2000/svg" xmlns:xlink="http://www.w3.org/1999/xlink" x="0px" y="0px"
	 viewBox="0 0 436.767 436.767" style="enable-background:new 0 0 436.767 436.767;" xml:space="preserve">
<circle style="fill:#D4E1F4;" cx="218.384" cy="309.812" r="26.122"/>
<path style="fill:#4DCFE0;" d="M402.808,241.371v137.404h-53.812H87.771H33.959V241.371H402.808z M244.506,309.812
	c0-14.629-11.494-26.122-26.122-26.122s-26.122,11.494-26.122,26.122c0,14.629,11.494,26.122,26.122,26.122
	S244.506,324.441,244.506,309.812z"/>
<g>
	<path style="fill:#3A2C51;" d="M246.596,191.216c-4.18,0-7.837-1.567-10.971-4.702c-9.404-9.404-24.555-9.404-34.482,0
		c-6.269,6.269-16.196,6.269-21.943,0c-6.269-6.269-6.269-16.196,0-21.943c21.42-21.42,56.947-21.42,78.367,0
		c6.269,6.269,6.269,16.196,0,21.943C254.433,189.649,250.775,191.216,246.596,191.216z"/>
	<path style="fill:#3A2C51;" d="M140.016,141.584c-4.18,0-7.837-1.567-10.971-4.702c-6.269-6.269-6.269-16.196,0-21.943
		c24.033-24.033,55.902-37.094,89.339-37.094c0,0,0,0,0.522,0c33.437,0,65.306,13.061,88.816,37.094
		c6.269,6.269,6.269,16.196,0,21.943c-6.269,6.269-16.196,6.269-21.943,0c-17.763-17.763-41.273-27.69-66.351-27.69
		s-49.633,9.927-67.396,27.69C147.853,140.016,144.196,141.584,140.016,141.584z"/>
	<path style="fill:#3A2C51;" d="M85.159,86.727c-4.18,0-7.837-1.567-10.971-4.702c-6.269-6.269-6.269-16.196,0-21.943
		C112.849,21.42,164.049,0,218.384,0c0,0,0,0,0.522,0c54.335,0,105.535,21.42,143.673,60.082c6.269,6.269,6.269,16.196,0,21.943
		c-6.269,6.269-16.196,6.269-21.943,0c-32.392-32.392-75.233-50.678-121.208-50.678c0,0,0,0-0.522,0
		c-45.976,0-89.339,17.763-122.253,50.678C92.996,85.159,89.339,86.727,85.159,86.727z"/>
	<path style="fill:#3A2C51;" d="M218.384,351.608c-22.988,0-41.796-18.808-41.796-41.796s18.808-41.796,41.796-41.796
		s41.796,18.808,41.796,41.796S241.371,351.608,218.384,351.608z M218.384,299.363c-5.747,0-10.449,4.702-10.449,10.449
		c0,5.747,4.702,10.449,10.449,10.449s10.449-4.702,10.449-10.449C228.833,304.065,224.131,299.363,218.384,299.363z"/>
	<path style="fill:#3A2C51;" d="M402.808,225.698H33.959c-8.882,0-15.673,6.792-15.673,15.673v137.404
		c0,8.882,6.792,15.673,15.673,15.673h38.139v26.645c0,8.882,6.792,15.673,15.673,15.673s15.673-6.792,15.673-15.673v-26.645
		h229.878v26.645c0,8.882,6.792,15.673,15.673,15.673c8.882,0,15.673-6.792,15.673-15.673v-26.645h38.139
		c8.882,0,15.673-6.792,15.673-15.673V241.371C418.482,232.49,411.69,225.698,402.808,225.698z M387.135,363.102H49.633V257.045
		h337.502V363.102z"/>
</g>
<g>
</g>
<g>
</g>
<g>
</g>
<g>
</g>
<g>
</g>
<g>
</g>
<g>
</g>
<g>
</g>
<g>
</g>
<g>
</g>
<g>
</g>
<g>
</g>
<g>
</g>
<g>
</g>
<g>
</g>
</svg>
